<?xml version="1.0" encoding="UTF-8" standalone="no" ?>
<!DOCTYPE svg PUBLIC "-//W3C//DTD SVG 1.1//EN" "http://www.w3.org/Graphics/SVG/1.1/DTD/svg11.dtd">
<svg xmlns="http://www.w3.org/2000/svg" xmlns:xlink="http://www.w3.org/1999/xlink" version="1.1" width="276.95195312499993" height="275.97416" xml:space="preserve">
<desc>Created with Fabric.js 1.6.0-rc.1</desc>
<defs></defs>
<g style="stroke: none; stroke-width: 1; stroke-dasharray: none; stroke-linecap: butt; stroke-linejoin: miter; stroke-miterlimit: 10; fill: none; fill-rule: nonzero; opacity: 1;" transform="translate(10.000000000000014 10) scale(0.7 0.7)" >
  <path d="M 168.494 70.449 C 75.601 70.449 0.27 145.619 0 238.449 h 336.988 c -0.269 -92.83 -75.602 -168 -168.494 -168 z" style="stroke: none; stroke-width: 1; stroke-dasharray: none; stroke-linecap: butt; stroke-linejoin: miter; stroke-miterlimit: 10; fill: #ff9700; fill-rule: nonzero; opacity: 1;" transform="" stroke-linecap="round" />
  <path d="M 168.494 110.065 c -70.988 0 -128.556 57.385 -128.762 128.385 h 257.523 c -0.204 -71.001 -57.773 -128.385 -128.761 -128.385 z" style="stroke: none; stroke-width: 1; stroke-dasharray: none; stroke-linecap: butt; stroke-linejoin: miter; stroke-miterlimit: 10; fill: #f5f5f5; fill-rule: nonzero; opacity: 1;" transform="" stroke-linecap="round" />
  <path d="M 168.494 128.731 c -60.667 0 -109.865 48.719 -110.041 109.719 h 220.084 c -0.178 -61.001 -49.375 -109.719 -110.043 -109.719 z" style="stroke: none; stroke-width: 1; stroke-dasharray: none; stroke-linecap: butt; stroke-linejoin: miter; stroke-miterlimit: 10; fill: #ff9700; fill-rule: nonzero; opacity: 1;" transform="" stroke-linecap="round" />
  <path d="M 246.031 256.449 H 85.623 s 80.205 66 160.408 0 z M 173.659 0 s 38.03 174.942 13.04 256.438 c 0 0 9.779 -32.598 -109.747 -10.866 c 0 -0.002 71.716 -78.236 96.707 -245.572 z" style="stroke: none; stroke-width: 1; stroke-dasharray: none; stroke-linecap: butt; stroke-linejoin: miter; stroke-miterlimit: 10; fill: #041a28; fill-rule: nonzero; opacity: 1;" transform="" stroke-linecap="round" />
  <ellipse cx="381.816" cy="373.09599999999995" rx="86.666" ry="3.066" style="stroke: none; stroke-width: 1; stroke-dasharray: none; stroke-linecap: butt; stroke-linejoin: miter; stroke-miterlimit: 10; fill: #00edcd; fill-rule: nonzero; opacity: 1;" transform=" matrix(1 0 0 1 -216.322 -78.244) "/>
  <ellipse cx="381.816" cy="397.09599999999995" rx="86.666" ry="3.066" style="stroke: none; stroke-width: 1; stroke-dasharray: none; stroke-linecap: butt; stroke-linejoin: miter; stroke-miterlimit: 10; fill: #00edcd; fill-rule: nonzero; opacity: 1;" transform=" matrix(1 0 0 1 -216.322 -78.244) "/>
  <ellipse cx="379.084" cy="410.296" rx="45.614" ry="3.066" style="stroke: none; stroke-width: 1; stroke-dasharray: none; stroke-linecap: butt; stroke-linejoin: miter; stroke-miterlimit: 10; fill: #00edcd; fill-rule: nonzero; opacity: 1;" transform=" matrix(1 0 0 1 -216.322 -78.244) "/>
  <ellipse cx="379.084" cy="385.09599999999995" rx="45.614" ry="3.066" style="stroke: none; stroke-width: 1; stroke-dasharray: none; stroke-linecap: butt; stroke-linejoin: miter; stroke-miterlimit: 10; fill: #00edcd; fill-rule: nonzero; opacity: 1;" transform=" matrix(1 0 0 1 -216.322 -78.244) "/>
</g>
  <g transform="translate(142.34 256.2) scale(0.18 0.38)">
   <text font-family="ADAMCG PRO" font-size="40" font-style="italic" font-weight="normal" style="stroke: none; stroke-width: 1; stroke-dasharray: none; stroke-linecap: butt; stroke-linejoin: miter; stroke-miterlimit: 10; fill: #00ffdd; fill-rule: nonzero; opacity: 1;" ><tspan x="-692.78" y="8.98" style="stroke: none; stroke-width: 0; stroke-dasharray: none; stroke-linecap: butt; stroke-linejoin: miter; stroke-miterlimit: 4; fill: #00ffdd; fill-rule: ; opacity: 1;">N</tspan><tspan x="-663.27" y="8.98" style="stroke: none; stroke-width: 0; stroke-dasharray: none; stroke-linecap: butt; stroke-linejoin: miter; stroke-miterlimit: 4; fill: #00ffdd; fill-rule: ; opacity: 1;">e</tspan><tspan x="-640.01" y="8.98" style="stroke: none; stroke-width: 0; stroke-dasharray: none; stroke-linecap: butt; stroke-linejoin: miter; stroke-miterlimit: 4; fill: #00ffdd; fill-rule: ; opacity: 1;">w</tspan><tspan x="-595.19" y="8.98" style="stroke: none; stroke-width: 0; stroke-dasharray: none; stroke-linecap: butt; stroke-linejoin: miter; stroke-miterlimit: 4; fill: #00ffdd; fill-rule: ; opacity: 1;"> </tspan><tspan x="-583.19" y="8.98" style="stroke: none; stroke-width: 0; stroke-dasharray: none; stroke-linecap: butt; stroke-linejoin: miter; stroke-miterlimit: 4; fill: #00ffdd; fill-rule: ; opacity: 1;">w</tspan><tspan x="-538.37" y="8.98" style="stroke: none; stroke-width: 0; stroke-dasharray: none; stroke-linecap: butt; stroke-linejoin: miter; stroke-miterlimit: 4; fill: #00ffdd; fill-rule: ; opacity: 1;">a</tspan><tspan x="-510.58" y="8.98" style="stroke: none; stroke-width: 0; stroke-dasharray: none; stroke-linecap: butt; stroke-linejoin: miter; stroke-miterlimit: 4; fill: #00ffdd; fill-rule: ; opacity: 1;">v</tspan><tspan x="-482.28" y="8.98" style="stroke: none; stroke-width: 0; stroke-dasharray: none; stroke-linecap: butt; stroke-linejoin: miter; stroke-miterlimit: 4; fill: #00ffdd; fill-rule: ; opacity: 1;">e</tspan><tspan x="-459.01" y="8.98" style="stroke: none; stroke-width: 0; stroke-dasharray: none; stroke-linecap: butt; stroke-linejoin: miter; stroke-miterlimit: 4; fill: #00ffdd; fill-rule: ; opacity: 1;"> </tspan><tspan x="-447.02" y="8.98" style="stroke: none; stroke-width: 0; stroke-dasharray: none; stroke-linecap: butt; stroke-linejoin: miter; stroke-miterlimit: 4; fill: #00ffdd; fill-rule: ; opacity: 1;">e</tspan><tspan x="-423.76" y="8.98" style="stroke: none; stroke-width: 0; stroke-dasharray: none; stroke-linecap: butt; stroke-linejoin: miter; stroke-miterlimit: 4; fill: #00ffdd; fill-rule: ; opacity: 1;">d</tspan><tspan x="-396.77" y="8.98" style="stroke: none; stroke-width: 0; stroke-dasharray: none; stroke-linecap: butt; stroke-linejoin: miter; stroke-miterlimit: 4; fill: #00ffdd; fill-rule: ; opacity: 1;">u</tspan><tspan x="-369.13" y="8.98" style="stroke: none; stroke-width: 0; stroke-dasharray: none; stroke-linecap: butt; stroke-linejoin: miter; stroke-miterlimit: 4; fill: #00ffdd; fill-rule: ; opacity: 1;">c</tspan><tspan x="-342.06" y="8.98" style="stroke: none; stroke-width: 0; stroke-dasharray: none; stroke-linecap: butt; stroke-linejoin: miter; stroke-miterlimit: 4; fill: #00ffdd; fill-rule: ; opacity: 1;">a</tspan><tspan x="-314.27" y="8.98" style="stroke: none; stroke-width: 0; stroke-dasharray: none; stroke-linecap: butt; stroke-linejoin: miter; stroke-miterlimit: 4; fill: #00ffdd; fill-rule: ; opacity: 1;">t</tspan><tspan x="-290.91" y="8.98" style="stroke: none; stroke-width: 0; stroke-dasharray: none; stroke-linecap: butt; stroke-linejoin: miter; stroke-miterlimit: 4; fill: #00ffdd; fill-rule: ; opacity: 1;">i</tspan><tspan x="-280.13" y="8.98" style="stroke: none; stroke-width: 0; stroke-dasharray: none; stroke-linecap: butt; stroke-linejoin: miter; stroke-miterlimit: 4; fill: #00ffdd; fill-rule: ; opacity: 1;">o</tspan><tspan x="-246.18" y="8.98" style="stroke: none; stroke-width: 0; stroke-dasharray: none; stroke-linecap: butt; stroke-linejoin: miter; stroke-miterlimit: 4; fill: #00ffdd; fill-rule: ; opacity: 1;">n</tspan><tspan x="-216.67" y="8.98" style="stroke: none; stroke-width: 0; stroke-dasharray: none; stroke-linecap: butt; stroke-linejoin: miter; stroke-miterlimit: 4; fill: #00ffdd; fill-rule: ; opacity: 1;">a</tspan><tspan x="-188.88" y="8.98" style="stroke: none; stroke-width: 0; stroke-dasharray: none; stroke-linecap: butt; stroke-linejoin: miter; stroke-miterlimit: 4; fill: #00ffdd; fill-rule: ; opacity: 1;">l</tspan><tspan x="-168.45" y="8.98" style="stroke: none; stroke-width: 0; stroke-dasharray: none; stroke-linecap: butt; stroke-linejoin: miter; stroke-miterlimit: 4; fill: #00ffdd; fill-rule: ; opacity: 1;"> </tspan><tspan x="-156.46" y="8.98" style="stroke: none; stroke-width: 0; stroke-dasharray: none; stroke-linecap: butt; stroke-linejoin: miter; stroke-miterlimit: 4; fill: #00ffdd; fill-rule: ; opacity: 1;">c</tspan><tspan x="-129.38" y="8.98" style="stroke: none; stroke-width: 0; stroke-dasharray: none; stroke-linecap: butt; stroke-linejoin: miter; stroke-miterlimit: 4; fill: #00ffdd; fill-rule: ; opacity: 1;">o</tspan><tspan x="-95.44" y="8.98" style="stroke: none; stroke-width: 0; stroke-dasharray: none; stroke-linecap: butt; stroke-linejoin: miter; stroke-miterlimit: 4; fill: #00ffdd; fill-rule: ; opacity: 1;">n</tspan><tspan x="-65.93" y="8.98" style="stroke: none; stroke-width: 0; stroke-dasharray: none; stroke-linecap: butt; stroke-linejoin: miter; stroke-miterlimit: 4; fill: #00ffdd; fill-rule: ; opacity: 1;">s</tspan><tspan x="-44.81" y="8.98" style="stroke: none; stroke-width: 0; stroke-dasharray: none; stroke-linecap: butt; stroke-linejoin: miter; stroke-miterlimit: 4; fill: #00ffdd; fill-rule: ; opacity: 1;">u</tspan><tspan x="-17.18" y="8.98" style="stroke: none; stroke-width: 0; stroke-dasharray: none; stroke-linecap: butt; stroke-linejoin: miter; stroke-miterlimit: 4; fill: #00ffdd; fill-rule: ; opacity: 1;">l</tspan><tspan x="3.25" y="8.98" style="stroke: none; stroke-width: 0; stroke-dasharray: none; stroke-linecap: butt; stroke-linejoin: miter; stroke-miterlimit: 4; fill: #00ffdd; fill-rule: ; opacity: 1;">t</tspan><tspan x="26.61" y="8.98" style="stroke: none; stroke-width: 0; stroke-dasharray: none; stroke-linecap: butt; stroke-linejoin: miter; stroke-miterlimit: 4; fill: #00ffdd; fill-rule: ; opacity: 1;">a</tspan><tspan x="54.4" y="8.98" style="stroke: none; stroke-width: 0; stroke-dasharray: none; stroke-linecap: butt; stroke-linejoin: miter; stroke-miterlimit: 4; fill: #00ffdd; fill-rule: ; opacity: 1;">n</tspan><tspan x="83.92" y="8.98" style="stroke: none; stroke-width: 0; stroke-dasharray: none; stroke-linecap: butt; stroke-linejoin: miter; stroke-miterlimit: 4; fill: #00ffdd; fill-rule: ; opacity: 1;">c</tspan><tspan x="110.99" y="8.98" style="stroke: none; stroke-width: 0; stroke-dasharray: none; stroke-linecap: butt; stroke-linejoin: miter; stroke-miterlimit: 4; fill: #00ffdd; fill-rule: ; opacity: 1;">y</tspan><tspan x="138.51" y="8.98" style="stroke: none; stroke-width: 0; stroke-dasharray: none; stroke-linecap: butt; stroke-linejoin: miter; stroke-miterlimit: 4; fill: #00ffdd; fill-rule: ; opacity: 1;"> </tspan><tspan x="150.5" y="8.98" style="stroke: none; stroke-width: 0; stroke-dasharray: none; stroke-linecap: butt; stroke-linejoin: miter; stroke-miterlimit: 4; fill: #00ffdd; fill-rule: ; opacity: 1;">a</tspan><tspan x="178.29" y="8.98" style="stroke: none; stroke-width: 0; stroke-dasharray: none; stroke-linecap: butt; stroke-linejoin: miter; stroke-miterlimit: 4; fill: #00ffdd; fill-rule: ; opacity: 1;">n</tspan><tspan x="207.8" y="8.98" style="stroke: none; stroke-width: 0; stroke-dasharray: none; stroke-linecap: butt; stroke-linejoin: miter; stroke-miterlimit: 4; fill: #00ffdd; fill-rule: ; opacity: 1;">d</tspan><tspan x="234.79" y="8.98" style="stroke: none; stroke-width: 0; stroke-dasharray: none; stroke-linecap: butt; stroke-linejoin: miter; stroke-miterlimit: 4; fill: #00ffdd; fill-rule: ; opacity: 1;"> </tspan><tspan x="246.79" y="8.98" style="stroke: none; stroke-width: 0; stroke-dasharray: none; stroke-linecap: butt; stroke-linejoin: miter; stroke-miterlimit: 4; fill: #00ffdd; fill-rule: ; opacity: 1;">m</tspan><tspan x="280.89" y="8.98" style="stroke: none; stroke-width: 0; stroke-dasharray: none; stroke-linecap: butt; stroke-linejoin: miter; stroke-miterlimit: 4; fill: #00ffdd; fill-rule: ; opacity: 1;">a</tspan><tspan x="308.68" y="8.98" style="stroke: none; stroke-width: 0; stroke-dasharray: none; stroke-linecap: butt; stroke-linejoin: miter; stroke-miterlimit: 4; fill: #00ffdd; fill-rule: ; opacity: 1;">n</tspan><tspan x="338.19" y="8.98" style="stroke: none; stroke-width: 0; stroke-dasharray: none; stroke-linecap: butt; stroke-linejoin: miter; stroke-miterlimit: 4; fill: #00ffdd; fill-rule: ; opacity: 1;">p</tspan><tspan x="360.62" y="8.98" style="stroke: none; stroke-width: 0; stroke-dasharray: none; stroke-linecap: butt; stroke-linejoin: miter; stroke-miterlimit: 4; fill: #00ffdd; fill-rule: ; opacity: 1;">o</tspan><tspan x="394.56" y="8.98" style="stroke: none; stroke-width: 0; stroke-dasharray: none; stroke-linecap: butt; stroke-linejoin: miter; stroke-miterlimit: 4; fill: #00ffdd; fill-rule: ; opacity: 1;">w</tspan><tspan x="439.38" y="8.98" style="stroke: none; stroke-width: 0; stroke-dasharray: none; stroke-linecap: butt; stroke-linejoin: miter; stroke-miterlimit: 4; fill: #00ffdd; fill-rule: ; opacity: 1;">e</tspan><tspan x="462.65" y="8.98" style="stroke: none; stroke-width: 0; stroke-dasharray: none; stroke-linecap: butt; stroke-linejoin: miter; stroke-miterlimit: 4; fill: #00ffdd; fill-rule: ; opacity: 1;">r</tspan><tspan x="488.27" y="8.98" style="stroke: none; stroke-width: 0; stroke-dasharray: none; stroke-linecap: butt; stroke-linejoin: miter; stroke-miterlimit: 4; fill: #00ffdd; fill-rule: ; opacity: 1;"> </tspan><tspan x="500.26" y="8.98" style="stroke: none; stroke-width: 0; stroke-dasharray: none; stroke-linecap: butt; stroke-linejoin: miter; stroke-miterlimit: 4; fill: #00ffdd; fill-rule: ; opacity: 1;">s</tspan><tspan x="521.38" y="8.98" style="stroke: none; stroke-width: 0; stroke-dasharray: none; stroke-linecap: butt; stroke-linejoin: miter; stroke-miterlimit: 4; fill: #00ffdd; fill-rule: ; opacity: 1;">e</tspan><tspan x="544.64" y="8.98" style="stroke: none; stroke-width: 0; stroke-dasharray: none; stroke-linecap: butt; stroke-linejoin: miter; stroke-miterlimit: 4; fill: #00ffdd; fill-rule: ; opacity: 1;">r</tspan><tspan x="570.26" y="8.98" style="stroke: none; stroke-width: 0; stroke-dasharray: none; stroke-linecap: butt; stroke-linejoin: miter; stroke-miterlimit: 4; fill: #00ffdd; fill-rule: ; opacity: 1;">v</tspan><tspan x="598.56" y="8.98" style="stroke: none; stroke-width: 0; stroke-dasharray: none; stroke-linecap: butt; stroke-linejoin: miter; stroke-miterlimit: 4; fill: #00ffdd; fill-rule: ; opacity: 1;">i</tspan><tspan x="609.35" y="8.98" style="stroke: none; stroke-width: 0; stroke-dasharray: none; stroke-linecap: butt; stroke-linejoin: miter; stroke-miterlimit: 4; fill: #00ffdd; fill-rule: ; opacity: 1;">c</tspan><tspan x="636.42" y="8.98" style="stroke: none; stroke-width: 0; stroke-dasharray: none; stroke-linecap: butt; stroke-linejoin: miter; stroke-miterlimit: 4; fill: #00ffdd; fill-rule: ; opacity: 1;">e</tspan><tspan x="659.68" y="8.98" style="stroke: none; stroke-width: 0; stroke-dasharray: none; stroke-linecap: butt; stroke-linejoin: miter; stroke-miterlimit: 4; fill: #00ffdd; fill-rule: ; opacity: 1;">s</tspan><tspan x="680.79" y="8.98" style="stroke: none; stroke-width: 0; stroke-dasharray: none; stroke-linecap: butt; stroke-linejoin: miter; stroke-miterlimit: 4; fill: #00ffdd; fill-rule: ; opacity: 1;"> </tspan></text>
 </g>
<g style="stroke: none; stroke-width: 1; stroke-dasharray: none; stroke-linecap: butt; stroke-linejoin: miter; stroke-miterlimit: 10; fill: none; fill-rule: nonzero; opacity: 1;" transform="translate(81.74000000000001 94.24000000000002) scale(0.17 0.17)" >
  <path d="M 479.873 16.69 C 458.54 -4.644 420.14 -5.71 372.14 14.556 c -5.333 2.133 -7.467 8.533 -5.333 13.867 s 8.533 7.467 13.867 5.333 c 39.467 -16 70.4 -17.067 85.333 -2.133 c 16.198 15.245 11.101 52.631 -12.217 101.492 C 413.393 61.853 336.812 13.489 249.473 13.489 c -129.067 0 -234.667 105.6 -234.667 234.667 c 0 87.612 48.667 164.396 120.294 204.691 c -48.802 23.915 -86.869 29.268 -103.228 12.909 c -14.933 -13.867 -13.867 -44.8 2.133 -84.267 c 3.2 -5.333 0 -11.733 -5.333 -13.867 c -5.333 -3.2 -11.733 0 -13.867 5.333 c -20.267 48 -19.2 86.4 2.133 107.733 c 10.667 9.6 25.6 14.933 43.733 14.933 c 26.925 0 59.884 -11.061 97.898 -31.229 c 27.993 11.86 58.717 18.429 90.902 18.429 c 129.067 0 234.667 -105.6 234.667 -234.667 c 0 -32.41 -6.663 -63.337 -18.679 -91.487 C 499.36 90.95 504.832 41.649 479.873 16.69 z M 249.473 461.489 c -23.171 0 -45.504 -3.758 -66.436 -10.67 c 26.777 -15.265 54.604 -32.692 82.435 -55.463 c 4.267 -3.2 4.267 -10.667 1.067 -14.933 c -3.2 -4.267 -10.667 -5.333 -14.933 -1.067 c -31.745 25.793 -63.488 45.123 -93.517 61.432 C 86.149 406.399 36.14 332.838 36.14 248.156 c 0 -117.333 96 -213.333 213.333 -213.333 c 84.499 0 157.929 49.791 192.411 121.48 c -23.582 43.38 -59.783 90.549 -103.878 137.72 c -4.267 4.267 -4.267 10.667 0 14.933 c 2.133 2.133 5.333 3.2 7.467 3.2 c 3.2 0 5.333 -1.067 7.467 -3.2 c 40.59 -43.357 73.992 -87.51 98.842 -128.323 c 7.143 21.244 11.025 43.951 11.025 67.523 C 462.807 365.489 366.807 461.489 249.473 461.489 z" style="stroke: none; stroke-width: 1; stroke-dasharray: none; stroke-linecap: butt; stroke-linejoin: miter; stroke-miterlimit: 10; fill: #000009; fill-rule: nonzero; opacity: 1;" transform=" matrix(1 0 0 1 0 0) " stroke-linecap="round" />
  <path d="M 390.273 120.156 c 0 -6.4 -4.267 -10.667 -10.667 -10.667 c -21.333 0 -50.133 3.2 -71.467 24.533 l -156.8 156.8 h -28.8 c -3.2 0 -5.333 1.066 -7.467 3.2 L 93.74 315.356 c -3.2 2.133 -4.267 6.4 -3.2 9.6 c 1.067 3.2 4.267 6.4 7.467 7.467 l 64 21.333 c 2.133 1.067 5.333 1.067 7.467 0 l 53.333 -21.333 c 1.066 0 2.133 -1.067 3.2 -2.133 l 34.133 -34.133 l 22.4 72.533 c 1.067 4.267 4.267 6.4 7.467 7.467 c 0 0 1.067 0 2.133 0 c 2.133 0 5.333 -1.067 9.6 -3.2 l 21.333 -21.333 c 2.133 -2.133 3.2 -4.267 3.2 -7.467 V 231.09 l 39.467 -39.467 C 387.073 170.29 390.273 142.556 390.273 120.156 z M 304.94 219.356 c -2.133 2.133 -3.2 4.267 -3.2 7.467 v 113.067 l -5.333 5.333 l -22.4 -72.533 c -1.067 -4.267 -4.267 -6.4 -7.467 -7.467 c 0 0 -1.067 0 -2.133 0 c -3.2 0 -5.333 1.067 -8.534 3.2 l -45.867 45.867 l -48 19.2 l -43.733 -14.933 l 5.333 -6.4 h 28.8 c 3.2 0 5.333 -1.066 7.467 -3.2 l 160 -160 c 13.867 -12.8 30.933 -17.067 45.867 -18.133 c -1.067 16 -5.333 33.066 -18.133 45.867 L 304.94 219.356 z" style="stroke: none; stroke-width: 1; stroke-dasharray: none; stroke-linecap: butt; stroke-linejoin: miter; stroke-miterlimit: 10; fill: #000009; fill-rule: nonzero; opacity: 1;" transform=" matrix(1 0 0 1 0 0) " stroke-linecap="round" />
  <path d="M 118.273 204.423 l 64 21.333 c 1.066 1.067 2.133 1.067 3.2 1.067 c 4.267 0 8.533 -3.2 10.667 -7.467 c 2.133 -6.4 -1.067 -11.733 -6.4 -13.867 l -43.733 -14.933 l 10.667 -7.467 h 71.467 c 6.4 0 10.667 -4.267 10.667 -10.667 c 0 -6.4 -4.267 -10.667 -10.667 -10.667 h -74.667 c -2.133 0 -4.267 1.067 -6.4 2.133 l -32 21.333 c -3.2 2.133 -5.333 6.4 -4.267 10.667 S 114.007 203.356 118.273 204.423 z" style="stroke: none; stroke-width: 1; stroke-dasharray: none; stroke-linecap: butt; stroke-linejoin: miter; stroke-miterlimit: 10; fill: #000009; fill-rule: nonzero; opacity: 1;" transform=" matrix(1 0 0 1 0 0) " stroke-linecap="round" />
</g>
</svg>